<?xml version="1.0" encoding="iso-8859-1"?>
<!-- Uploaded to: SVG Repo, www.svgrepo.com, Generator: SVG Repo Mixer Tools -->
<svg version="1.1" id="Layer_1" xmlns="http://www.w3.org/2000/svg" xmlns:xlink="http://www.w3.org/1999/xlink" 
	 viewBox="0 0 480 480" xml:space="preserve">
<rect x="216" y="88" style="fill:#BD8931;" width="48" height="32"/>
<circle style="fill:#FCB641;" cx="240" cy="296" r="176"/>
<circle style="fill:#F7FAFD;" cx="240" cy="296" r="120"/>
<g>
	<polygon style="fill:#FCB641;" points="240,224 208,296 240,368 272,296 	"/>
	<path style="fill:#FCB641;" d="M264,88h-48c-8.8,0-16-7.2-16-16V56h80v16C280,80.8,272.8,88,264,88z"/>
</g>
<path style="fill:#FDC567;" d="M280,56h-80V40c0-17.7,14.3-32,32-32h16c17.7,0,32,14.3,32,32V56z"/>
<ellipse style="fill:#E67F33;" cx="240" cy="296" rx="32" ry="32"/>
<g>
	<path style="fill:#132C47;" d="M345.8,145.6l3.9-3.9c3.1-3.1,3.1-8.2,0-11.3s-8.2-3.1-11.3,0l-6.4,6.4
		c-18.2-10.6-38.5-18.1-60-21.9V94.6c9.3-3.3,16-12.1,16-22.5V56V40c0-22.1-17.9-40-40-40h-16c-22.1,0-40,17.9-40,40v16v16
		c0,10.4,6.7,19.2,16,22.5v20.3c-21.5,3.8-41.7,11.3-60,21.9l-6.4-6.4c-3.1-3.1-8.2-3.1-11.3,0s-3.1,8.2,0,11.3l3.9,3.9
		C87,178.9,56,233.9,56,296c0,101.5,82.5,184,184,184s184-82.5,184-184C424,233.9,393,178.9,345.8,145.6z M208,40
		c0-13.2,10.8-24,24-24h16c13.2,0,24,10.8,24,24v8h-64V40z M208,64h64v8c0,4.4-3.6,8-8,8h-48c-4.4,0-8-3.6-8-8V64z M256,96v16h-32
		V96H256z M240,464c-92.6,0-168-75.4-168-168s75.4-168,168-168s168,75.4,168,168S332.6,464,240,464z"/>
	<path style="fill:#132C47;" d="M330.7,205.8c-0.1-0.1-0.1-0.2-0.2-0.3s-0.2-0.1-0.3-0.2c-23.2-23-55-37.3-90.2-37.3
		s-67,14.3-90.2,37.3c-0.1,0.1-0.2,0.1-0.3,0.2s-0.1,0.2-0.2,0.3c-23,23.2-37.3,55-37.3,90.2s14.3,67,37.3,90.2
		c0.1,0.1,0.1,0.2,0.2,0.3s0.2,0.1,0.3,0.2c23.2,23,55,37.3,90.2,37.3s67-14.3,90.2-37.3c0.1-0.1,0.2-0.1,0.3-0.2s0.1-0.2,0.2-0.3
		c23-23.2,37.3-55,37.3-90.2S353.7,229,330.7,205.8z M324.5,369.2l-5.4-5.4c-3.1-3.1-8.2-3.1-11.3,0c-3.1,3.1-3.1,8.2,0,11.3
		l5.4,5.4c-17.8,15.4-40.4,25.3-65.2,27V400c0-4.4-3.6-8-8-8s-8,3.6-8,8v7.6c-24.9-1.8-47.5-11.6-65.2-27l5.4-5.4
		c3.1-3.1,3.1-8.2,0-11.3c-3.1-3.1-8.2-3.1-11.3,0l-5.4,5.4c-15.4-17.8-25.3-40.4-27-65.2h7.6c4.4,0,8-3.6,8-8s-3.6-8-8-8h-7.6
		c1.8-24.9,11.6-47.5,27-65.2l5.4,5.4c1.6,1.6,3.6,2.3,5.7,2.3c2,0,4.1-0.8,5.7-2.3c3.1-3.1,3.1-8.2,0-11.3l-5.4-5.4
		c17.8-15.4,40.4-25.3,65.2-27v7.6c0,4.4,3.6,8,8,8c4.4,0,8-3.6,8-8v-7.6c24.9,1.8,47.5,11.6,65.2,27l-5.4,5.4
		c-3.1,3.1-3.1,8.2,0,11.3c1.6,1.6,3.6,2.3,5.7,2.3c2,0,4.1-0.8,5.7-2.3l5.4-5.4c15.4,17.8,25.3,40.4,27,65.2H344c-4.4,0-8,3.6-8,8
		s3.6,8,8,8h7.6C349.8,328.9,340,351.5,324.5,369.2z"/>
	<path style="fill:#132C47;" d="M268.3,267.7c-0.1,0-0.1-0.1-0.2-0.1l-20.8-46.8c-1.3-2.9-4.2-4.8-7.3-4.8c-3.2,0-6,1.9-7.3,4.8
		l-20.8,46.8c0,0-0.1,0.1-0.2,0.1c-7.6,7.6-11.7,17.6-11.7,28.3s4.2,20.7,11.7,28.3c0,0,0.1,0.1,0.2,0.1l20.8,46.8
		c1.3,2.9,4.2,4.8,7.3,4.8c3.2,0,6-1.9,7.3-4.8l20.8-46.8c0,0,0.1-0.1,0.2-0.1c7.6-7.6,11.7-17.6,11.7-28.3S275.8,275.3,268.3,267.7
		z M240,243.7l5.7,12.9c-3.8-0.5-7.6-0.5-11.4,0L240,243.7z M240,348.3l-5.7-12.9c1.9,0.3,3.8,0.5,5.7,0.5s3.8-0.3,5.7-0.5
		L240,348.3z M244,319.5L244,319.5c-0.7,0.1-1.3,0.2-1.9,0.2c-0.1,0-0.2,0-0.3,0c-0.6,0-1.2,0.1-1.8,0.1l0,0l0,0
		c-0.6,0-1.2,0-1.8-0.1c-0.1,0-0.2,0-0.3,0c-0.6-0.1-1.2-0.1-1.8-0.2c-0.1,0-0.1,0-0.2,0c-1.3-0.2-2.5-0.5-3.7-1c0,0,0,0-0.1,0
		c-0.6-0.2-1.2-0.5-1.8-0.7l0,0c-8.4-3.7-14.2-12.1-14.2-21.9c0-12.5,9.6-22.8,21.9-23.8h0.1c0.6-0.1,1.3-0.1,1.9-0.1l0,0l0,0l0,0
		c0.7,0,1.3,0,1.9,0.1h0.1c12.3,1,21.9,11.3,21.9,23.8C263.9,307.8,255.3,317.6,244,319.5z"/>
</g>
</svg>